<svg id="visual" viewBox="0 0 900 600" width="900" height="600" xmlns="http://www.w3.org/2000/svg" xmlns:xlink="http://www.w3.org/1999/xlink" version="1.1"><rect x="0" y="0" width="900" height="600" fill="#f2e1d5"></rect><path d="M663 600L671 585.7C679 571.3 695 542.7 705.8 514.2C716.7 485.7 722.3 457.3 718.5 428.8C714.7 400.3 701.3 371.7 679.7 343C658 314.3 628 285.7 626.7 257C625.3 228.3 652.7 199.7 679.3 171.2C706 142.7 732 114.3 715.5 85.8C699 57.3 640 28.7 610.5 14.3L581 0L900 0L900 14.3C900 28.7 900 57.3 900 85.8C900 114.3 900 142.7 900 171.2C900 199.7 900 228.3 900 257C900 285.7 900 314.3 900 343C900 371.7 900 400.3 900 428.8C900 457.3 900 485.7 900 514.2C900 542.7 900 571.3 900 585.7L900 600Z" fill="#faebd7" stroke-linecap="round" stroke-linejoin="miter"></path></svg>